<?xml version="1.0" standalone="no"?>
<!DOCTYPE svg PUBLIC "-//W3C//DTD SVG 1.1//EN" "http://www.w3.org/Graphics/SVG/1.1/DTD/svg11.dtd" >
<svg xmlns="http://www.w3.org/2000/svg" xmlns:xlink="http://www.w3.org/1999/xlink" version="1.1">
<metadata></metadata>
<defs>
<font id="runner2regular" horiz-adv-x="2048" >
<font-face units-per-em="2048" ascent="1920" descent="-128" />
<missing-glyph horiz-adv-x="500" />
<glyph horiz-adv-x="0" />
<glyph unicode="&#xd;" horiz-adv-x="680" />
<glyph unicode="!" d="M192 896q0 344 244 588t588 244t588 -244t244 -588t-244 -588t-588 -244t-588 244t-244 588zM384 896q0 -264 188 -452t452 -188q208 0 376 124l-892 892q-124 -168 -124 -376zM644 1408l892 -892q128 168 128 380q0 264 -188 452t-452 188q-212 0 -380 -128z" />
<glyph unicode="." horiz-adv-x="3320" d="M108 348q0 -28 20 -48l172 -172q20 -20 46 -20t46 20l772 772q20 20 20 46t-20 46l-772 772q-20 20 -46 20t-46 -20l-172 -172q-20 -20 -20 -46t20 -46l552 -552l-552 -552q-20 -20 -20 -48z" />
<glyph unicode="/" horiz-adv-x="6144" d="M92 936q0 52 40 92l676 676q40 40 96 40t92 -40l80 -76q40 -40 40 -94t-40 -94l-304 -308h732q52 0 86 -38t34 -94v-132q0 -56 -34 -94t-86 -38h-732l304 -308q40 -36 40 -92t-40 -96l-80 -76q-36 -40 -92 -40t-96 40l-676 676q-40 40 -40 96z" />
<glyph unicode="2" horiz-adv-x="3868" d="M60 866q0 218 108 402t292 290t400 106t400 -106t292 -290t108 -402t-108 -400t-292 -290t-400 -108t-400 108t-292 290t-108 400zM324 868q0 -28 16 -48l96 -96l376 -376q20 -16 48 -16t44 16l96 96q20 20 20 48t-20 44l-196 196h520q28 0 48 20t20 48v132q0 28 -20 48 t-48 20h-520l196 196q20 20 20 48t-20 44l-96 96q-16 20 -44 20t-48 -20l-376 -376l-96 -96q-16 -16 -16 -44z" />
<glyph unicode="4" horiz-adv-x="3868" d="M60 866q0 -218 108 -400t292 -290t400 -108t400 108t292 290t108 400t-108 402t-292 290t-400 106t-400 -106t-292 -290t-108 -402zM328 800v132q0 28 20 48t48 20h520l-196 196q-20 20 -20 48t20 44l96 96q16 20 44 20t48 -20l376 -376l96 -96q16 -16 16 -44t-16 -48 l-96 -96l-376 -376q-20 -16 -48 -16t-44 16l-96 96q-20 20 -20 48t20 44l196 196h-520q-28 0 -48 20t-20 48z" />
<glyph unicode="F" d="M256 768q0 52 38 90t90 38t92 -36l420 -424v1228q0 52 38 90t90 38t90 -38t38 -90v-1228l420 424q40 36 92 36t90 -38t38 -90t-36 -92l-640 -640q-40 -36 -92 -36t-92 36l-640 640q-36 40 -36 92z" />
<glyph unicode="G" d="M256 1024q0 52 36 92l640 640q40 36 92 36t92 -36l640 -640q36 -40 36 -92t-38 -90t-90 -38t-92 36l-420 424v-1228q0 -52 -38 -90t-90 -38t-90 38t-38 90v1228l-420 -424q-40 -36 -92 -36t-90 38t-38 90z" />
<glyph unicode="L" d="M0 384v1536h896l384 -384v-128h384l384 -384v-1152h-1280v512h-768zM128 512h1024v896h-384v384h-640v-1280zM896 0h1024v896h-384v384h-256v-896h-384v-384zM896 1536h204l-204 204v-204zM1664 1024h204l-204 204v-204z" />
<glyph unicode="M" horiz-adv-x="3320" d="M108 946q0 26 20 46l772 772q20 20 46 20t46 -20l172 -172q20 -20 20 -46t-20 -46l-552 -552l552 -552q20 -20 20 -48t-20 -48l-172 -172q-20 -20 -46 -20t-46 20l-772 772q-20 20 -20 46z" />
<glyph unicode="N" horiz-adv-x="6144" d="M92 868q0 -56 34 -94t90 -38h732l-304 -308q-40 -36 -40 -92t40 -96l76 -76q40 -40 96 -40q52 0 92 40l680 676q36 40 36 96q0 52 -36 92l-680 676q-40 40 -92 40q-56 0 -96 -40l-76 -76q-40 -40 -40 -94t40 -94l304 -308h-732q-56 0 -90 -38t-34 -94v-132z" />
<glyph unicode="[" d="M4 736q0 52 36 88l88 92q36 36 86 36t86 -36l472 -492l928 1436q32 48 86 58t98 -22l108 -76q48 -28 58 -84t-22 -104l-1136 -1760h-112l-740 772q-36 40 -36 92z" />
<glyph unicode="\" d="M0 96q0 8 2 16t2 16t2 16t2 12v4l152 548q20 64 64 108l664 664v4l4 4l308 312q124 120 300 120q216 0 380 -164q152 -152 166 -350t-118 -330l-976 -984q-48 -48 -112 -64l-540 -144l-4 -4h-16l-16 -4l-24 -4h-16q-92 0 -158 66t-66 158zM220 440q136 -4 240 -108 t108 -244l236 60l24 12q84 96 68 236t-124 248q-104 100 -236 120t-228 -48q-16 -20 -24 -44zM488 900q92 -4 184 -40l604 604q-180 44 -296 -68zM732 828q76 -40 132 -92q44 -44 84 -112l608 612q-32 64 -80 112q-60 60 -136 92zM980 564q36 -84 44 -168v-48l496 500v4 q124 124 64 320zM1188 1604q216 0 380 -164q144 -148 160 -340v-20v-24l108 112q92 92 84 228q-12 152 -128 268q-128 128 -292 128q-124 0 -208 -84z" />
<glyph unicode="`" d="M0 96q0 8 2 16t2 16t2 16t2 12v4l152 548q20 64 64 108l664 664v4l4 4l308 312q124 120 300 120q216 0 380 -164q152 -152 166 -350t-118 -330l-976 -984q-48 -48 -112 -64l-540 -144l-4 -4h-16l-16 -4l-24 -4h-16q-92 0 -158 66t-66 158zM128 96q0 -40 28 -68t68 -28 q12 0 44 8l236 64q8 120 -88 216q-92 92 -216 88l-64 -244q-8 -28 -8 -36zM220 440q136 -4 240 -108t108 -244l236 60l24 12q84 96 68 236t-124 248q-104 100 -236 120t-228 -48q-16 -20 -24 -44zM488 900q92 -4 184 -40l604 604q-180 44 -296 -68zM732 828q76 -40 132 -92 q44 -44 84 -112l608 612q-32 64 -80 112q-60 60 -136 92zM980 564q36 -84 44 -168v-48l496 500v4q124 124 64 320zM1188 1604q216 0 380 -164q144 -148 160 -340v-20v-24l108 112q92 92 84 228q-12 152 -128 268q-128 128 -292 128q-124 0 -208 -84z" />
<glyph unicode="a" d="M0 96q0 96 68 164l532 532q-88 168 -88 360q0 316 224 542t544 226t544 -226t224 -544t-224 -542t-544 -224q-192 0 -360 88l-532 -532q-68 -68 -164 -68q-92 0 -158 66t-66 158zM112 98q0 -46 34 -80t80 -34t82 36l516 516q-92 68 -160 160l-516 -516q-36 -36 -36 -82z M640 1152q0 -264 188 -452t452 -188t452 188t188 452t-188 452t-452 188t-452 -188t-188 -452zM832 1152q0 184 132 316t316 132q32 0 32 -32t-32 -32q-160 0 -272 -112t-112 -272q0 -32 -32 -32t-32 32z" />
<glyph unicode="b" horiz-adv-x="3660" d="M56 776v232q0 48 32 80t80 32h500v500q0 48 34 82t82 34h232q48 0 80 -34t32 -82v-500h500q48 0 82 -32t34 -80v-232q0 -48 -34 -82t-82 -34h-500v-500q0 -48 -32 -80t-80 -32h-232q-48 0 -82 32t-34 80v500h-500q-48 0 -80 34t-32 82z" />
<glyph unicode="c" horiz-adv-x="3660" d="M64 1456v76q0 16 12 26t28 10h368l88 200q16 48 62 78t94 30h384q48 0 96 -30t64 -78l84 -200h372q16 0 28 -10t12 -26v-76q0 -20 -12 -30t-28 -10h-116v-1136q0 -100 -56 -174t-136 -74h-996q-80 0 -136 72t-56 168v1144h-116q-16 0 -28 10t-12 30zM372 280q0 -28 8 -50 t18 -32t14 -10h996q4 0 14 10t18 32t8 50v1136h-1076v-1136zM524 456v692q0 16 12 26t28 10h76q16 0 28 -10t12 -26v-692q0 -16 -12 -28t-28 -12h-76q-16 0 -28 12t-12 28zM640 1568h540l-60 144q-8 8 -20 12h-380q-12 -4 -20 -12zM832 456v692q0 16 12 26t28 10h76 q16 0 28 -10t12 -26v-692q0 -16 -12 -28t-28 -12h-76q-16 0 -28 12t-12 28zM1140 456v692q0 16 10 26t30 10h76q16 0 26 -10t10 -26v-692q0 -16 -10 -28t-26 -12h-76q-20 0 -30 12t-10 28z" />
<glyph unicode="d" d="M44 84q0 72 48 120l492 488q-116 184 -116 396q0 308 220 528t528 220t528 -220t220 -528t-220 -528t-528 -220q-212 0 -396 116l-488 -492q-48 -48 -120 -48t-120 48t-48 120zM684 1088q0 -220 156 -376t376 -156t376 156t156 376t-156 376t-376 156t-376 -156 t-156 -376zM1196 1408q0 36 24 60t60 24q100 0 220 -116q120 -120 120 -224q0 -36 -24 -60t-60 -24q-32 0 -56 20t-28 48q-16 68 -68 120t-120 68q-28 4 -48 28t-20 56z" />
<glyph unicode="e" horiz-adv-x="2256" d="M12 428v476q0 92 66 158t154 66h76v624q0 48 32 80t76 32h776q44 0 100 -24t88 -56l176 -172q32 -32 54 -88t22 -104v-292h76q92 0 156 -66t64 -158v-476q0 -16 -10 -28t-26 -12h-260v-184q0 -44 -32 -76t-76 -32h-1108q-44 0 -76 32t-32 76v184h-260q-16 0 -26 12 t-10 28zM456 240h372h660v296h-1032v-296zM456 980h1032v440h-184q-48 0 -80 34t-32 78v184h-736v-736zM1632 906q0 -30 22 -52t52 -22t52 22t22 52t-22 52t-52 22t-52 -22t-22 -52z" />
<glyph unicode="f" horiz-adv-x="3660" d="M68 356q0 64 4 124t18 130t32 130t50 116t74 98t104 66t134 24q12 0 52 -26t88 -58t128 -58t162 -26t160 26t128 58t90 58t52 26q72 0 132 -24t102 -66t76 -98t52 -116t32 -130t18 -130t4 -124q0 -144 -88 -228t-232 -84h-1052q-144 0 -232 84t-88 228zM452 1426 q0 190 136 326t326 136t326 -136t136 -326t-136 -326t-326 -136t-326 136t-136 326z" />
<glyph unicode="g" d="M300 564q0 156 98 280t222 124v644q-64 0 -112 48t-48 112t48 112t112 48h808q64 0 112 -48t48 -112t-48 -112t-112 -48v-644q124 0 222 -124t98 -280q0 -32 -24 -56t-56 -24l-500 4l-104 -612q-4 -12 -14 -24t-26 -12q-32 0 -40 36l-96 608h-508q-32 0 -56 24t-24 56z M824 1008q0 -16 10 -28t28 -12t30 12t12 28v564q0 16 -12 28t-30 12t-28 -12t-10 -28v-564z" />
<glyph unicode="h" d="M-44 1196q0 32 36 40l608 96v508q0 32 24 56t56 24q156 0 280 -98t124 -222h644q0 64 48 112t112 48t112 -48t48 -112v-808q0 -64 -48 -112t-112 -48t-112 48t-48 112h-644q0 -124 -124 -222t-280 -98q-32 0 -56 24t-24 56l4 500l-612 104q-12 4 -24 14t-12 26z M1084 1358q0 -18 12 -30t28 -12h564q16 0 28 12t12 30t-12 28t-28 10h-564q-16 0 -28 -10t-12 -28z" />
<glyph unicode="l" horiz-adv-x="2856" d="M12 428v476q0 92 66 158t154 66h76v624q0 48 32 80t76 32h776q44 0 100 -24t88 -56l176 -172q32 -32 54 -88t22 -104v-292h76q92 0 156 -66t64 -158v-476q0 -16 -10 -28t-26 -12h-260v-184q0 -44 -32 -76t-76 -32h-1108q-44 0 -76 32t-32 76v184h-260q-16 0 -26 12 t-10 28zM456 240h372h660v296h-1032v-296zM456 980h1032v440h-184q-48 0 -80 34t-32 78v184h-736v-736zM1632 906q0 -30 22 -52t52 -22t52 22t22 52t-22 52t-52 22t-52 -22t-22 -52zM1708 1708l508 -440l512 440h-1020z" />
<glyph unicode="m" horiz-adv-x="2360" d="M172 196v368q0 44 32 76t80 32h108v220q0 60 44 102t100 42h584v220h-108q-44 0 -76 32t-32 76v368q0 44 32 76t76 32h364q48 0 80 -32t32 -76v-368q0 -44 -32 -76t-80 -32h-108v-220h584q60 0 102 -42t42 -102v-220h112q44 0 76 -32t32 -76v-368q0 -44 -32 -76t-76 -32 h-368q-44 0 -76 32t-32 76v368q0 44 32 76t76 32h112v220h-584v-220h108q48 0 80 -32t32 -76v-368q0 -44 -32 -76t-80 -32h-364q-44 0 -76 32t-32 76v368q0 44 32 76t76 32h108v220h-584v-220h112q44 0 76 -32t32 -76v-368q0 -44 -32 -76t-76 -32h-364q-48 0 -80 32t-32 76z " />
<glyph unicode="n" horiz-adv-x="4324" d="M44 832q0 16 12 24l864 720q40 32 92 32t92 -32l292 -244v232q0 16 10 28t26 12h232q16 0 28 -12t12 -28v-488l260 -220q12 -8 14 -24t-6 -28l-76 -92q-8 -8 -24 -12h-4q-16 0 -28 8l-828 692l-832 -692q-12 -8 -28 -8q-16 4 -24 12l-76 92q-8 12 -8 28zM320 144v576v4v4 l692 568l688 -568q4 -4 4 -8v-576q0 -32 -24 -54t-56 -22h-460v460h-308v-460h-460q-32 0 -54 22t-22 54z" />
<glyph unicode="o" horiz-adv-x="3780" d="M88 156v152q0 32 22 54t54 22h1672q32 0 54 -22t22 -54v-152q0 -32 -22 -54t-54 -22h-1672q-32 0 -54 22t-22 54zM88 764v152q0 32 22 54t54 22h1672q32 0 54 -22t22 -54v-152q0 -32 -22 -54t-54 -22h-1672q-32 0 -54 22t-22 54zM88 1372v152q0 32 22 54t54 22h1672 q32 0 54 -22t22 -54v-152q0 -32 -22 -54t-54 -22h-1672q-32 0 -54 22t-22 54z" />
<glyph unicode="p" horiz-adv-x="2016" d="M0 -128v1736h824q24 -24 66 -62t62 -58l48 48h4v4l272 276q104 104 260 104q188 0 336 -144q132 -136 144 -308q1 -16 1 -32q0 -151 -105 -256l-556 -568q0 -156 2 -340t2 -400h-1360zM92 -24q292 0 586 -4q147 -2 292.5 -2t289.5 2v288l-4 268l-200 -212 q-40 -44 -96 -60l-472 -124l-8 -4h-8h-16l-20 -8h-12q-84 0 -140 58t-56 142q0 16 4 52l4 4l132 480q16 56 56 96l464 468l-100 92h-692q0 -188 -2 -726t-2 -810zM420 620q120 -4 208 -92q92 -92 96 -216l204 52q8 4 20 8q64 71 64 170q0 19 -2 38q-14 124 -110 220 q-112 112 -260 112q-80 -4 -144 -48q-16 -20 -24 -40zM652 1024q80 -4 160 -36l252 256l68 64l208 212q-40 8 -80 8q-108 0 -176 -68l-52 -52l-64 -68zM672 1388v28l4 32v-4v-56h-4zM864 964q68 -40 116 -84q40 -40 72 -100l236 236l64 68l236 232q-28 60 -72 100 q-52 52 -116 84l-232 -232l-64 -64zM1080 732q36 -76 40 -148q4 -8 4 -44l200 204l96 96l136 140h-4h4q73 76 73 177q0 48 -17 103l-220 -216l-68 -68zM1264 1640q188 0 332 -144q124 -128 140 -296q4 0 0 -16v-20l96 96q73 73 73 179q0 10 -1 21q-8 132 -112 236 q-112 112 -256 112q-108 0 -180 -72z" />
<glyph unicode="t" d="M444 438q0 30 20 50l404 408l-404 404q-20 24 -20 54t20 50l52 52q20 20 50 20t54 -20l404 -404l404 404q24 20 54 20t50 -20l52 -52q20 -20 20 -50t-20 -54l-404 -404l404 -408q20 -20 20 -50t-20 -50l-52 -52q-20 -20 -50 -20t-50 20l-408 404l-408 -404 q-20 -20 -50 -20t-50 20l-52 52q-20 20 -20 50z" />
<glyph unicode="u" horiz-adv-x="1316" d="M88 458q0 14 12 26l532 532q12 12 26 12t26 -12l532 -532q12 -12 12 -26t-12 -26l-56 -60q-12 -8 -26 -8t-26 8l-448 452l-452 -452q-12 -8 -26 -8t-26 8l-56 60q-12 12 -12 26zM88 896q0 16 12 28l532 532q12 12 26 12t26 -12l532 -532q12 -12 12 -28t-12 -28l-56 -56 q-12 -12 -26 -12t-26 12l-448 448l-452 -448q-12 -12 -26 -12t-26 12l-56 56q-12 12 -12 28z" />
<glyph unicode="v" horiz-adv-x="1316" d="M88 932q0 16 12 28l56 56q12 12 26 12t26 -12l452 -448l448 448q12 12 26 12t26 -12l56 -56q12 -12 12 -28t-12 -24l-532 -536q-12 -8 -26 -8t-26 8l-532 536q-12 8 -12 24zM88 1372q0 16 12 24l56 60q12 12 26 12t26 -12l452 -452l448 452q12 12 26 12t26 -12l56 -60 q12 -8 12 -24t-12 -28l-532 -532q-12 -12 -26 -12t-26 12l-532 532q-12 12 -12 28z" />
<glyph unicode="w" d="M0 -128v2048h256v-128h256v128h896v-128h256v128h256v-2048h-1920zM128 0h1664v1408h-1664v-1408zM256 128v256h256v-256h-256zM256 512v256h256v-256h-256zM640 128v256h256v-256h-256zM640 512v256h256v-256h-256zM640 896v256h256v-256h-256zM1024 128v256h256v-256 h-256zM1024 512v256h256v-256h-256zM1024 896v256h256v-256h-256zM1408 512v256h256v-256h-256zM1408 896v256h256v-256h-256z" />
<glyph unicode="z" horiz-adv-x="2856" d="M12 428v476q0 92 66 158t154 66h76v624q0 48 32 80t76 32h776q44 0 100 -24t88 -56l176 -172q32 -32 54 -88t22 -104v-292h76q92 0 156 -66t64 -158v-476q0 -16 -10 -28t-26 -12h-260v-184q0 -44 -32 -76t-76 -32h-1108q-44 0 -76 32t-32 76v184h-260q-16 0 -26 12 t-10 28zM456 240h372h660v296h-1032v-296zM456 980h1032v440h-184q-48 0 -80 34t-32 78v184h-736v-736zM1632 906q0 -30 22 -52t52 -22t52 22t22 52t-22 52t-52 22t-52 -22t-22 -52zM1708 1268l508 440l512 -440h-1020z" />
<glyph unicode="&#x2000;" horiz-adv-x="966" />
<glyph unicode="&#x2001;" horiz-adv-x="1932" />
<glyph unicode="&#x2002;" horiz-adv-x="966" />
<glyph unicode="&#x2003;" horiz-adv-x="1932" />
<glyph unicode="&#x2004;" horiz-adv-x="644" />
<glyph unicode="&#x2005;" horiz-adv-x="483" />
<glyph unicode="&#x2006;" horiz-adv-x="322" />
<glyph unicode="&#x2007;" horiz-adv-x="322" />
<glyph unicode="&#x2008;" horiz-adv-x="241" />
<glyph unicode="&#x2009;" horiz-adv-x="386" />
<glyph unicode="&#x200a;" horiz-adv-x="107" />
<glyph unicode="&#x202f;" horiz-adv-x="386" />
<glyph unicode="&#x205f;" horiz-adv-x="483" />
<glyph unicode="&#x25fc;" horiz-adv-x="2000" d="M0 0z" />
</font>
</defs>
</svg>
